<?xml version="1.0" standalone="no"?>
<!DOCTYPE svg PUBLIC "-//W3C//DTD SVG 20010904//EN"
 "http://www.w3.org/TR/2001/REC-SVG-20010904/DTD/svg10.dtd">
<svg version="1.0" xmlns="http://www.w3.org/2000/svg"
 width="500.000000pt" height="500.000000pt" viewBox="0 0 500.000000 500.000000"
 preserveAspectRatio="xMidYMid meet">

<g transform="translate(0.000000,500.000000) scale(0.100000,-0.100000)"
fill="#000000" stroke="none">
<path d="M2740 2310 c0 -273 0 -280 20 -280 19 0 20 7 20 232 0 177 3 229 12
220 6 -6 75 -109 152 -229 107 -164 147 -219 164 -221 l22 -3 -2 278 -3 278
-22 3 -23 3 -2 -230 -3 -230 -148 229 c-108 167 -154 230 -168 230 -18 0 -19
-12 -19 -280z"/>
<path d="M3639 2564 c-22 -23 -24 -35 -27 -135 l-4 -109 -29 0 c-22 0 -29 -5
-29 -20 0 -16 7 -20 30 -20 l30 0 -2 -237 c-3 -221 -4 -238 -21 -241 -10 -2
-27 4 -38 14 -14 13 -22 15 -31 6 -30 -30 34 -70 87 -55 51 15 55 36 55 285
l0 227 42 3 c31 2 44 8 46 21 3 14 -4 17 -42 17 l-46 0 0 104 c0 132 6 139 98
111 30 -10 30 18 0 39 -35 25 -90 20 -119 -10z"/>
<path d="M766 2434 c-32 -82 -82 -211 -112 -287 -30 -75 -54 -140 -54 -144 0
-25 27 33 80 172 34 88 81 211 106 274 25 62 43 118 41 124 -2 6 -29 -57 -61
-139z"/>
<path d="M1192 2308 l3 -273 90 2 c148 3 224 43 272 141 24 50 28 69 28 147 0
80 -3 95 -28 137 -51 87 -123 118 -274 118 l-93 0 2 -272z m203 221 c100 -27
150 -106 143 -223 -5 -81 -31 -140 -78 -179 -39 -33 -88 -47 -167 -47 l-63 0
0 230 0 230 63 0 c34 0 80 -5 102 -11z"/>
<path d="M1681 2481 c-13 -24 9 -57 33 -48 21 8 21 53 0 61 -22 8 -22 8 -33
-13z"/>
<path d="M454 2384 c-60 -47 -110 -89 -112 -93 -3 -9 217 -185 223 -179 3 2
-42 41 -100 87 -58 45 -105 86 -105 90 0 5 45 43 100 85 88 68 120 96 107 96
-2 0 -53 -39 -113 -86z"/>
<path d="M877 2452 c12 -9 62 -48 112 -87 50 -38 91 -73 91 -76 0 -3 -45 -41
-100 -84 -90 -70 -138 -113 -99 -90 11 7 198 153 217 170 6 5 -222 185 -233
185 -5 0 0 -8 12 -18z"/>
<path d="M1680 2196 c0 -125 2 -138 21 -157 15 -15 28 -19 47 -14 56 14 67 52
11 40 l-28 -6 -3 133 c-3 129 -4 133 -25 136 -23 3 -23 3 -23 -132z"/>
<path d="M1770 2303 c-22 -28 -24 -64 -4 -70 7 -2 17 10 23 27 8 25 15 31 33
28 22 -3 23 -6 26 -130 l3 -128 24 0 c25 0 25 0 25 102 0 97 1 103 27 130 20
21 36 28 64 28 57 0 69 -24 69 -142 0 -93 1 -98 25 -114 21 -14 30 -14 55 -4
41 17 40 41 -2 38 l-33 -3 -5 113 c-5 104 -7 115 -29 133 -35 29 -102 26 -140
-7 l-31 -26 -21 26 c-29 36 -80 36 -109 -1z"/>
<path d="M2258 2314 c-77 -41 -87 -214 -15 -268 35 -26 89 -26 125 1 l28 21
22 -25 c18 -20 28 -24 50 -18 33 8 57 29 48 44 -5 8 -13 8 -27 1 -11 -6 -24
-8 -29 -5 -6 4 -10 60 -10 131 0 102 -3 126 -15 130 -8 4 -21 1 -28 -4 -8 -7
-18 -7 -27 -2 -23 14 -92 11 -122 -6z m126 -30 c13 -5 16 -23 16 -88 0 -73 -3
-85 -22 -103 -71 -63 -138 -23 -138 82 0 48 20 99 42 108 19 8 84 8 102 1z"/>
<path d="M3285 2308 c-15 -12 -34 -36 -41 -54 -19 -45 -18 -128 3 -171 29 -62
116 -80 159 -32 22 24 31 24 39 0 3 -10 15 -21 26 -24 26 -7 79 11 79 27 0 20
-12 27 -26 15 -8 -6 -21 -9 -29 -5 -12 4 -15 29 -15 136 0 123 -1 130 -20 130
-11 0 -20 -4 -20 -10 0 -6 -9 -6 -26 0 -43 17 -99 12 -129 -12z m143 -30 c7
-7 12 -41 12 -80 0 -81 -16 -112 -67 -129 -30 -10 -39 -9 -61 8 -14 11 -30 33
-34 49 -12 41 -1 108 23 138 17 21 29 26 68 26 26 0 52 -5 59 -12z"/>
<path d="M3826 2300 c-19 -17 -40 -47 -47 -67 -15 -47 -6 -128 18 -161 26 -35
82 -56 127 -48 35 7 96 49 96 67 0 22 -32 19 -61 -5 -43 -36 -92 -31 -126 13
-26 33 -16 48 36 54 65 8 107 30 126 67 21 40 19 57 -10 85 -19 20 -34 25 -74
25 -42 0 -56 -5 -85 -30z m132 -38 c5 -34 -22 -59 -78 -72 -60 -14 -73 -9 -59
28 19 51 49 73 94 70 33 -3 41 -7 43 -26z"/>
<path d="M4060 2300 c0 -18 7 -20 70 -20 39 0 70 -3 70 -6 0 -3 -32 -52 -72
-108 -39 -55 -71 -108 -72 -116 -1 -12 19 -16 112 -18 107 -3 112 -2 112 18 0
18 -6 20 -80 20 -44 0 -80 2 -80 5 0 3 34 53 76 112 42 58 78 112 81 120 4 10
-18 13 -106 13 -104 0 -111 -1 -111 -20z"/>
</g>
</svg>
